<svg viewBox="0 0 128 128" xmlns="http://www.w3.org/2000/svg"><path fill="#512bd4" d="M61.195 0h4.953c12.918.535 25.688 4.89 36.043 12.676 9.809 7.289 17.473 17.437 21.727 28.906 4.098 10.848 5.097 22.77 3.266 34.14-1.969 11.766-7.191 22.86-14.848 31.89-8.027 9.51-18.81 16.629-30.696 20.309-13.012 4.062-27.222 4.097-40.25.079-11.715-3.61-22.367-10.543-30.379-19.883C3.59 99.27-1.301 87.843.223 76.388c.39-3.652 1.227-7.218 2.348-10.68 1.073-2.746.702-5.75.594-8.617-.254-3.93.078-7.938-.922-11.77-.453-1.96-1.699-3.945-3.664-4.648.64-2.477 1.348-4.937 2.27-7.32C5.534 21.66 15.2 11.543 27.168 5.155 37.79-.08 50.252-1.612 61.196 0z"/><path fill="#fff" d="M9.293 77.695c.313-3.168 1.46-6.18 2.524-9.14 1.015-2.903.777-6.024.46-9.028-.37-3.988-.156-8.14-1.554-11.933-.773-1.574-1.903-3.324-3.754-3.746-.101-3.593.98-7.075 2.266-10.402 1.809-4.758 4.254-9.254 7.317-13.293a53.001 53.001 0 0119.88-16.383c8.058-4.09 17.078-6.293 26.133-6.601 9.136-.258 18.316 1.535 26.649 5.238a53.178 53.178 0 0120.406 15.844c5.715 7.02 9.793 15.27 12.024 24.04 1.832 7.144 2.41 14.586 1.656 21.942-.852 8.09-3.406 15.992-7.379 23.02-5.39 9.62-13.598 17.5-23.289 22.632-10.266 5.497-22.078 7.742-33.61 6.739-10.477-.907-20.715-4.606-29.265-10.691-9.066-6.446-16.254-15.36-20.489-25.55-2.188-5.098-3.652-10.496-4.086-16.001-.067-.976.03-1.957.11-2.934zm13.543 14.871c2.605 7.02 7.156 13.312 13.148 17.918 6.453 4.996 14.234 8.168 22.325 9.016 8.793.976 17.866-.61 25.665-4.61 6.551-3.32 12.266-8.16 16.527-14.039 4.672-6.433 7.63-14.04 8.743-21.91 1.086-7.52.485-15.261-1.793-22.505-2.414-7.82-6.812-14.993-12.727-20.687-6.082-5.91-13.707-10.243-21.949-12.273-8.438-2.106-17.413-1.875-25.73.566-7.442 2.164-14.348 6.11-19.933 11.425-5.79 5.485-10.148 12.41-12.57 19.992-2.528 7.804-2.925 16.308-1.118 24.32 1.012 4.5 2.59 8.883 4.738 12.981.453.609.46 1.426.675 2.133.347.129.68.094 1 .45.07-.597-.05-1.203.14-1.785 1.71-.242 3.09.699 4.352 1.68 5.547 4.746 12.457 7.746 19.742 8.996 7.156 1.23 14.637.816 21.544-1.394a39.154 39.154 0 007.504-3.418c.586-.34 1.465-.453 1.633-1.183-.707-.328-1.473-.27-2.21-.39-4.196-.32-8.418-.741-12.457-1.93-6.254-1.809-12.2-5.152-16.614-9.926a30.016 30.016 0 01-6.578-11.25 33.36 33.36 0 01-1.195-13.297c.727-6.683 3.554-13.09 7.937-18.192 4.066-4.738 9.531-8.273 15.515-10.086 6.598-2.02 13.758-2.051 20.34.028 5.597 1.762 10.754 4.961 14.852 9.148.164.239.207.55.515.672.336-.422.14-.969.157-1.449.015-4.293-.007-8.586.008-12.88-.012-.327-.082-.71.157-.992.77-.176 1.555-.05 2.332-.086 1.328-.011 2.656-.003 3.985-.003.441-.004.993-.094 1.328.281.258.434.145.977.175 1.465-.003 14.199.007 28.398-.007 42.598.012 4.011-.726 8.012-2.195 11.715-2.136 5.5-6.14 10.137-11.176 13.152-4.7 2.84-10.254 4.113-15.75 4.027-1.992-.007-4.008-.14-5.95-.543-3.582-.75-6.968-2.342-9.801-4.605a23.21 23.21 0 01-5.723-7.031c-.187-.36-.27-.828-.656-1.04-.23.7-.219 1.446-.36 2.169a45.163 45.163 0 01-2.32 8.394c-.27.442-.633.859-.719 1.39.633.692 1.555.82 2.363 1.145 6.004 2.222 12.382 3.387 18.785 3.754 6.36.355 12.785-.063 18.988-1.418 5.39-1.164 10.617-3.074 15.378-5.797 3.781-2.16 7.234-4.836 10.234-7.957a53.2 53.2 0 008.313-11.691 51.702 51.702 0 004.965-14.946c.937-5.863 1.016-11.86.172-17.73-1.066-7.387-3.614-14.547-7.472-20.937-4.051-6.72-9.528-12.546-15.996-17.043C90.237 8.457 81.46 5.168 72.391 4.172c-7.84-.895-15.855-.129-23.351 2.246-8.508 2.68-16.334 7.418-22.633 13.735-5.695 5.68-10.152 12.531-13.031 20.008a53.812 53.812 0 00-3.106 23.023c.461 5.379 1.645 10.68 3.512 15.754.394.933.89 1.816 1.195 2.789.063.469.489.688.79.984 1.074-1.254 1.468-2.898 2.116-4.383 2.246-5.578 5.336-10.773 9.215-15.273a51.097 51.097 0 0115.543-12.758c6.766-3.93 14.394-6.39 22.219-6.945 6.992-.511 14.11.52 20.629 3.074 6.277 2.434 11.973 6.22 16.512 11.047 4.382 4.64 7.71 10.265 9.621 16.324 1.79 5.582 2.453 11.5 2.043 17.348-.5 6.922-2.531 13.75-5.918 19.754-3.109 5.531-7.36 10.39-12.402 14.168-4.965 3.742-10.7 6.434-16.75 7.883-6.094 1.477-12.47 1.657-18.633.625-6.2-1.023-12.2-3.328-17.407-6.746-.91-.598-1.809-1.266-2.832-1.672-.668-.203-1.14.379-1.492.82a40.9 40.9 0 00-4.035 6.493c-.207.543.348.89.672 1.21 5.61 4.692 12.243 8.04 19.258 9.946 7.707 2.11 15.855 2.434 23.707 1.055 6.91-1.199 13.535-3.836 19.38-7.64a48.802 48.802 0 0013.98-13.997c3.876-5.652 6.59-12.04 8.02-18.692 1.347-6.28 1.554-12.79.64-19.14-1.046-7.352-3.671-14.476-7.65-20.726-4.028-6.36-9.467-11.848-15.82-15.918-6.328-4.074-13.542-6.79-21.02-7.875-6.66-1-13.48-.672-20.004.86-6.738 1.566-13.156 4.496-18.73 8.564-5.473 3.976-10.153 9.02-13.66 14.77-3.61 5.9-6.063 12.498-7.157 19.336-.586 3.613-.793 7.297-.582 10.953.101 1.898.597 3.832-.07 5.683a42.556 42.556 0 00-2.234 7.793c-.2 1.094-.621 2.406.047 3.437 1.668.004 3.352.16 5.012-.04-.156-.933-.582-1.789-.89-2.673-.368-1.046-.29-2.094.234-3.047z"/><path fill="#512bd4" d="M96.465 58.867c-.02 4.024-.047 8.047.023 12.07-.066.621.031 1.278-.226 1.864-5.074-6.02-12.695-9.824-20.594-10.61-5.12-.566-10.394.22-15.101 2.262-5.024 2.152-9.426 5.695-12.598 10.078-3.152 4.332-5.114 9.496-5.606 14.82-.523 5.364.36 10.875 2.63 15.757a29.918 29.918 0 0011.598 12.727c3.078 1.933 6.504 3.297 10.062 4.066 4.598.977 9.39.918 13.93-.258 4.496-1.16 8.668-3.394 12.11-6.422 3.55-3.11 6.328-7.035 8.093-11.386 1.653-4.043 2.372-8.438 2.243-12.79v-55.206c-.031-.504.14-1.094-.195-1.536-.93-.273-1.914-.086-2.868-.136-1.39-.008-2.789.008-4.18-.008-.356-.027-.823.047-1.046.363-.29.336-.234.793-.273 1.2l-.003 24.145zM76.93 67.094c4.582-.633 9.352.316 13.355 2.637 3.586 2.062 6.527 5.113 8.461 8.71 2.016 3.708 2.918 7.973 2.66 12.188-.234 4.156-1.555 8.24-3.812 11.719-2.2 3.406-5.305 6.226-8.934 8.094a22.95 22.95 0 01-11.703 2.387c-3.992-.305-7.895-1.66-11.227-3.914-3.422-2.297-6.2-5.492-7.989-9.18-1.867-3.82-2.644-8.1-2.316-12.313.324-4.148 1.722-8.195 4.047-11.617a23.035 23.035 0 019.851-8.043 22.746 22.746 0 017.606-1.668z"/></svg>