<svg viewBox="0 0 128 128" xmlns="http://www.w3.org/2000/svg"><path fill="#e535ab" d="M18.39 96.852l-4.6-2.657L65.04 5.434l4.597 2.656zm0 0"/><path fill="#e535ab" d="M12.734 87.105H115.27v5.31H12.734zm0 0"/><path fill="#e535ab" d="M65.186 121.063L14.508 91.449l2.656-4.602 50.676 29.614zm0 0M110.344 34.508L59.664 4.894l2.656-4.601 50.68 29.613zm0 0M17.164 38.852l-2.656-4.602L65.183 4.636l2.657 4.601zm0 0"/><path fill="#e535ab" d="M109.621 96.852L58.37 8.09l4.598-2.656 51.253 88.761zm0 0"/><path fill="#e535ab" d="M113.242 87.105h-5.312V40.035h5.312zm0 0M64.03 124.03c-5.277 0-9.598-4.317-9.598-9.594 0-5.282 4.32-9.598 9.598-9.598s9.598 4.316 9.598 9.598c0 5.277-4.32 9.594-9.598 9.594zm0 0M20.652 99.066c-5.28 0-9.597-4.316-9.597-9.594 0-5.28 4.316-9.597 9.597-9.597 5.281 0 9.598 4.316 9.598 9.597 0 5.278-4.316 9.594-9.598 9.594zm0 0M107.348 99.066c-5.282 0-9.598-4.316-9.598-9.594 0-5.28 4.316-9.597 9.598-9.597 5.28 0 9.597 4.316 9.597 9.597 0 5.278-4.316 9.594-9.597 9.594zm0 0M107.348 48.129c-5.282 0-9.598-4.32-9.598-9.598 0-5.281 4.316-9.597 9.598-9.597 5.28 0 9.597 4.316 9.597 9.597 0 5.278-4.316 9.598-9.597 9.598zm0 0M20.652 48.129c-5.28 0-9.597-4.32-9.597-9.598 0-5.281 4.316-9.597 9.597-9.597 5.281 0 9.598 4.316 9.598 9.597 0 5.278-4.316 9.598-9.598 9.598zm0 0M64.03 22.16c-5.277 0-9.598-4.316-9.598-9.597C54.432 7.28 58.753 2.965 64.03 2.965s9.598 4.316 9.598 9.598c0 5.28-4.32 9.597-9.598 9.597zm0 0"/></svg>