<svg viewBox="0 0 128 128" xmlns="http://www.w3.org/2000/svg"><path fill="#a855f7" d="M64 8C33.1 8 8 33.1 8 64s25.1 56 56 56 56-25.1 56-56S94.9 8 64 8zm0 100c-24.3 0-44-19.7-44-44s19.7-44 44-44 44 19.7 44 44-19.7 44-44 44z"/><path fill="#a855f7" d="M64 28c-19.9 0-36 16.1-36 36s16.1 36 36 36 36-16.1 36-36-16.1-36-36-36zm0 60c-13.2 0-24-10.8-24-24s10.8-24 24-24 24 10.8 24 24-10.8 24-24 24z"/><circle cx="64" cy="64" r="12" fill="#a855f7"/><path fill="#a855f7" d="M64 44v-8M64 92v-8M84 64h8M36 64h8" stroke="#a855f7" stroke-width="4"/></svg>