<svg viewBox="0 0 128 128" xmlns="http://www.w3.org/2000/svg"><ellipse cx="64" cy="24" rx="48" ry="16" fill="#a855f7"/><path fill="#a855f7" d="M16 24v80c0 8.8 21.5 16 48 16s48-7.2 48-16V24c0 8.8-21.5 16-48 16S16 32.8 16 24z"/><ellipse cx="64" cy="24" rx="48" ry="16" fill="#c084fc"/><path d="M16 64c0 8.8 21.5 16 48 16s48-7.2 48-16" fill="none" stroke="#9333ea" stroke-width="4"/><path d="M16 44c0 8.8 21.5 16 48 16s48-7.2 48-16" fill="none" stroke="#9333ea" stroke-width="4"/><path d="M16 84c0 8.8 21.5 16 48 16s48-7.2 48-16" fill="none" stroke="#9333ea" stroke-width="4"/></svg>