<svg viewBox="0 0 128 128" xmlns="http://www.w3.org/2000/svg"><path fill="#ff6c37" d="M64 128C28.7 128 0 99.3 0 64S28.7 0 64 0s64 28.7 64 64-28.7 64-64 64z"/><path fill="#fff" d="M84.4 45.9l-22 22c-.1.1-.1.2 0 .3l4.6 4.6c.1.1.2.1.3 0l22-22c.1-.1.1-.2 0-.3l-4.6-4.6c-.1-.1-.2-.1-.3 0z"/><path fill="#fff" d="M90.7 47.7c1.5 1.5 1.5 4 0 5.5L69.2 74.7c-1.5 1.5-4 1.5-5.5 0L42.2 53.2c-1.5-1.5-1.5-4 0-5.5l21.5-21.5c1.5-1.5 4-1.5 5.5 0l21.5 21.5z" opacity=".6"/><path fill="#fff" d="M52.7 77l-6-6c-.1-.1-.2-.1-.3 0l-7.8 7.8c-.1.1-.1.2 0 .3l6 6c.1.1.2.1.3 0l7.8-7.8c.1-.1.1-.2 0-.3z"/><path fill="#fff" d="M50.3 95.2c-.1.1-.1.2 0 .3l3.3 3.3c.1.1.2.1.3 0l7.8-7.8c.1-.1.1-.2 0-.3l-3.3-3.3c-.1-.1-.2-.1-.3 0l-7.8 7.8z"/></svg>