<svg viewBox="0 0 128 128" xmlns="http://www.w3.org/2000/svg"><path fill="#6cb52d" d="M116.452 6.643a59.104 59.104 0 01-6.837 12.136A64.249 64.249 0 0064.205-.026C28.984-.026 0 28.982 0 64.242a64.316 64.316 0 0019.945 46.562l2.368 2.1a64.22 64.22 0 0041.358 15.122c33.487 0 61.637-26.24 64.021-59.683 1.751-16.371-3.051-37.077-11.24-61.7zM29.067 111.17a5.5 5.5 0 01-4.269 2.034c-3.018 0-5.487-2.484-5.487-5.502 0-3.017 2.485-5.501 5.487-5.501 1.25 0 2.485.433 3.452 1.234 2.351 1.9 2.718 5.384.817 7.735zm87.119-19.238c-15.843 21.122-49.68 14.003-71.376 15.02 0 0-3.852.234-7.721.867 0 0 1.451-.617 3.318-1.217 15.126-5.285 22.278-6.335 31.5-11.086 17.323-8.903 34.478-28.357 38.047-48.596-6.602 19.321-26.675 35.945-44.983 42.681-12.53 4.617-35.18 9.086-35.18 9.086l-.917-.484c-15.41-7.536-15.876-40.938 12.146-51.675 12.262-4.718 23.992-2.134 37.228-5.286 14.104-3.352 30.41-13.971 37.062-27.86 7.42 22.076 15.065 56.317-.124 78.55z"/></svg>